<?xml version="1.0" encoding="UTF-8" standalone="no"?>
<!DOCTYPE svg PUBLIC "-//W3C//DTD SVG 1.1//EN" "http://www.w3.org/Graphics/SVG/1.1/DTD/svg11.dtd">
<svg width="100%" height="100%" viewBox="0 0 2260 2381" version="1.1" xmlns="http://www.w3.org/2000/svg" xmlns:xlink="http://www.w3.org/1999/xlink" xml:space="preserve" xmlns:serif="http://www.serif.com/" style="fill-rule:evenodd;clip-rule:evenodd;stroke-linecap:round;stroke-linejoin:round;stroke-miterlimit:10;">
    <g transform="matrix(1,0,0,1,-624.25,-1355.66)">
        <g transform="matrix(4.16667,0,0,4.16667,0,0)">
            <g transform="matrix(1,0,0,1,324.43,583.478)">
                <path d="M0,-20.44L0,0.87L-6.38,0.95L-40.59,1.38L-40.59,-21.82L-6.38,-20.66L0,-20.44Z" style="fill:none;fill-rule:nonzero;stroke:white;stroke-width:2.5px;"/>
            </g>
            <g transform="matrix(1,0,0,1,551.92,456.538)">
                <path d="M0,232.631L-90.89,225.481L-90.89,-37.759L0,-48.609L0,232.631ZM-104.68,225.481L-184.59,264.921L-184.59,-25.37L-104.68,-35.64L-104.68,225.481ZM7.92,-63.93L7.92,-71.14L-133.93,-52.489L-177.3,-46.789L-177.3,-38.689L-196.76,-44.229L-196.76,275.53L20.43,303.771L20.43,-64.569L7.92,-63.93Z" style="fill:none;fill-rule:nonzero;stroke:white;stroke-width:2.5px;"/>
            </g>
            <g transform="matrix(1,0,0,1,447.24,560.098)">
                <path d="M0,-33.74L0,0L-49.36,0L0,-33.74Z" style="fill:rgb(249,198,123);fill-rule:nonzero;stroke:white;stroke-width:2.5px;"/>
            </g>
            <g transform="matrix(0,1,1,0,417.725,610.494)">
                <path d="M-50.395,29.515L-29.515,29.515L-29.515,-50.395L-50.395,-19.845L-50.395,29.515Z" style="fill:none;fill-rule:nonzero;stroke:white;stroke-width:2.5px;"/>
            </g>
            <g transform="matrix(1,0,0,1,447.24,643.968)">
                <path d="M0,-31.66L0,0L-52.8,0L0,-31.66Z" style="fill:rgb(249,198,123);fill-rule:nonzero;stroke:white;stroke-width:2.5px;"/>
            </g>
            <g transform="matrix(1,0,0,1,690.82,392.608)">
                <path d="M0,-66L-118.471,-6.3L-130.98,0" style="fill:none;fill-rule:nonzero;stroke:white;stroke-width:2.5px;"/>
            </g>
            <g transform="matrix(0.901687,-0.43239,-0.43239,-0.901687,590.455,422.707)">
                <path d="M-6.458,28.405L124.927,28.405" style="fill:none;fill-rule:nonzero;stroke:white;stroke-width:2.5px;"/>
            </g>
            <g transform="matrix(1,0,0,1,690.818,463.332)">
                <path d="M0,4.215L-21.958,9.75L-21.958,-29.872L-51.064,-20.643L-51.064,17.09L-104.929,30.673L-104.873,-3.253L-110.601,-1.06L-110.682,32.123L-118.469,34.087" style="fill:none;fill-rule:nonzero;stroke:white;stroke-width:2.5px;"/>
            </g>
            <g transform="matrix(1,0,0,1,585.945,491.332)">
                <path d="M0,-31.253L9.894,-30.168L9.894,0" style="fill:none;fill-rule:nonzero;stroke:white;stroke-width:2.5px;"/>
            </g>
            <g transform="matrix(1,0,0,1,668.86,470.241)">
                <path d="M0,-36.781L9.894,-35.696L9.894,0" style="fill:none;fill-rule:nonzero;stroke:white;stroke-width:2.5px;"/>
            </g>
            <g transform="matrix(0.997429,-0.0716569,-0.0716569,-0.997429,572.807,557.908)">
                <path d="M-0.153,4.255L118.622,4.255" style="fill:none;fill-rule:nonzero;stroke:white;stroke-width:2.5px;"/>
            </g>
            <g transform="matrix(1,0,0,1,572.35,607.823)">
                <path d="M0,15.639L67.404,23.966L67.404,-14.573L96.511,-14.639L96.511,27.563L118.469,30.278" style="fill:none;fill-rule:nonzero;stroke:white;stroke-width:2.5px;"/>
            </g>
            <g transform="matrix(1,0,0,1,668.86,636.628)">
                <path d="M0,-43.444L10.043,-42.613L10.043,0" style="fill:none;fill-rule:nonzero;stroke:white;stroke-width:2.5px;"/>
            </g>
            <g transform="matrix(0.963993,0.265928,0.265928,-0.963993,578.828,661.745)">
                <path d="M-2.213,-16.34L120.682,-16.34" style="fill:none;fill-rule:nonzero;stroke:white;stroke-width:2.5px;"/>
            </g>
            <g transform="matrix(0.893401,0.449261,0.449261,-0.893401,592.046,736.877)">
                <path d="M-7.068,-29.787L125.537,-29.787" style="fill:none;fill-rule:nonzero;stroke:white;stroke-width:2.5px;"/>
            </g>
            <g transform="matrix(0.899413,0.4371,0.4371,-0.899413,590.891,728.917)">
                <path d="M-6.625,-28.787L125.094,-28.787" style="fill:none;fill-rule:nonzero;stroke:white;stroke-width:2.5px;"/>
            </g>
            <g transform="matrix(-0.950261,-0.311454,-0.311454,0.950261,168.04,303.488)">
                <path d="M-229.401,36.635L5.851,36.635" style="fill:none;fill-rule:nonzero;stroke:white;stroke-width:2.5px;"/>
            </g>
            <g transform="matrix(1,0,0,1,575.37,839.538)">
                <path d="M0,3.989C-0.771,10.369 -6.12,16.3 -15.09,21.519C-15.49,21.76 -15.91,21.989 -16.33,22.229C-33.43,31.709 -62.601,38.749 -97.83,41.669C-112.39,42.869 -127.98,43.369 -144.18,43.039C-149.88,42.929 -155.51,42.709 -161.03,42.399C-179.53,41.38 -196.92,39.309 -212.53,36.419C-229.42,33.289 -244.23,29.199 -256.07,24.439C-261.98,22.059 -267.16,19.519 -271.49,16.829C-281.36,10.729 -286.86,3.929 -286.72,-3.151C-286.23,-27.051 -221.64,-45.141 -142.43,-43.541C-63.23,-41.941 0.58,-21.261 0.1,2.639C0.09,3.09 0.06,3.539 0,3.989ZM-138.9,-50.45C-233.74,-52.37 -311.11,-30.16 -311.7,-0.851C-312.12,19.689 -274.73,38.26 -219.69,48.189C-201.24,51.529 -180.81,53.889 -159.16,55.019C-153.21,55.34 -147.16,55.569 -141.04,55.689C-107.851,56.359 -76.8,54.069 -50.43,49.559C-47.96,49.139 -45.54,48.699 -43.16,48.229C1.78,39.559 31.41,24.169 31.77,6.079C32.36,-23.231 -44.05,-48.541 -138.9,-50.45Z" style="fill:none;fill-rule:nonzero;stroke:white;stroke-width:2.5px;"/>
            </g>
            <g transform="matrix(1,0,0,1,575.37,822.748)">
                <path d="M0,20.779C-0.771,27.159 -6.12,33.09 -15.09,38.309C-15.061,37.969 -15.04,37.63 -15.03,37.289C-14.28,12.269 -68.39,-9.66 -135.89,-11.681C-138.24,-11.751 -140.561,-11.801 -142.87,-11.811C-148.96,-11.87 -154.94,-11.761 -160.77,-11.491C-216.48,-8.891 -258.81,8.099 -259.46,29.979C-259.58,33.819 -258.4,37.59 -256.07,41.229C-261.98,38.849 -267.16,36.309 -271.49,33.619C-277.94,28.749 -281.41,23.529 -281.25,18.17C-280.59,-4.2 -216.8,-20.45 -138.79,-18.12C-67.63,-15.991 -9.21,0.859 0,20.779Z" style="fill:rgb(249,198,123);fill-rule:nonzero;stroke:white;stroke-width:2.5px;"/>
            </g>
            <g transform="matrix(1,0,0,1,347.6,832.138)">
                <path d="M0,22.939C0.01,23 0.03,23.069 0.04,23.129C0.48,30.549 5.97,37.639 15.24,43.819C-1.65,40.689 -16.46,36.599 -28.3,31.839C-30.63,28.2 -31.81,24.429 -31.69,20.589C-31.04,-1.29 11.29,-18.281 67,-20.88C62.9,-20.47 58.69,-19.851 54.43,-18.981C21.04,-12.201 -3.32,6.569 0,22.939Z" style="fill-rule:nonzero;stroke:white;stroke-width:2.5px;"/>
            </g>
            <g transform="matrix(1,0,0,1,516.68,848.777)">
                <path d="M0,7.2C-0.34,18.45 -16.05,27.83 -39.14,32.429C-53.699,33.63 -69.29,34.13 -85.489,33.8C-91.189,33.69 -96.82,33.47 -102.34,33.16C-102.979,33.06 -103.61,32.95 -104.24,32.84C-105.5,32.63 -106.75,32.4 -107.979,32.15C-108.59,32.03 -109.2,31.91 -109.81,31.78C-113.47,31.02 -116.97,30.15 -120.28,29.179C-120.81,29.03 -121.34,28.87 -121.86,28.71C-123.479,28.22 -125.06,27.7 -126.58,27.16C-127.09,26.98 -127.59,26.8 -128.09,26.61C-128.19,26.58 -128.29,26.54 -128.39,26.5L-129.02,26.26C-129.2,26.2 -129.38,26.13 -129.56,26.05L-129.57,26.05C-130.11,25.84 -130.65,25.63 -131.17,25.41C-131.69,25.2 -132.19,24.98 -132.7,24.77C-133.05,24.62 -133.39,24.47 -133.729,24.31C-134.15,24.12 -134.56,23.929 -134.97,23.74C-135.06,23.71 -135.15,23.66 -135.229,23.62C-136.03,23.24 -136.81,22.85 -137.57,22.46C-137.979,22.25 -138.38,22.04 -138.77,21.82C-141.22,20.5 -143.42,19.09 -145.34,17.63C-145.81,17.27 -146.27,16.91 -146.7,16.55C-147.51,15.87 -148.27,15.179 -148.97,14.47C-149.1,14.35 -149.22,14.23 -149.33,14.1C-150.209,13.179 -150.99,12.25 -151.65,11.29C-151.75,11.15 -151.85,11.01 -151.94,10.86C-152.17,10.52 -152.39,10.17 -152.59,9.81C-152.729,9.57 -152.86,9.33 -152.979,9.08C-153.09,8.88 -153.18,8.679 -153.27,8.48C-153.69,7.56 -154.01,6.62 -154.22,5.67C-154.26,5.49 -154.3,5.31 -154.33,5.13C-154.37,4.91 -154.4,4.69 -154.43,4.47C-154.459,4.28 -154.479,4.09 -154.49,3.9L-154.49,3.86C-154.52,3.44 -154.53,3 -154.52,2.57C-154.01,-14.29 -119.02,-26.93 -76.35,-25.65C-74.39,-25.59 -72.449,-25.51 -70.529,-25.38C-69.87,-25.35 -69.22,-25.31 -68.569,-25.26C-68.319,-25.25 -68.069,-25.23 -67.819,-25.2C-66.979,-25.14 -66.14,-25.071 -65.3,-25C-64.46,-24.93 -63.62,-24.85 -62.79,-24.77C-61.689,-24.66 -60.6,-24.54 -59.52,-24.41C-58.35,-24.28 -57.18,-24.13 -56.029,-23.96C-55.06,-23.83 -54.1,-23.69 -53.14,-23.54C-52.1,-23.39 -51.06,-23.22 -50.04,-23.03C-47.93,-22.66 -45.87,-22.26 -43.859,-21.83C-43.29,-21.71 -42.72,-21.59 -42.16,-21.46C-42.029,-21.43 -41.91,-21.41 -41.779,-21.37C-41.189,-21.24 -40.6,-21.1 -40.02,-20.96C-39.33,-20.79 -38.649,-20.62 -37.97,-20.44C-37.68,-20.37 -37.38,-20.29 -37.09,-20.21C-36.739,-20.12 -36.399,-20.03 -36.069,-19.93C-35.56,-19.79 -35.06,-19.65 -34.56,-19.5C-34.5,-19.49 -34.449,-19.48 -34.399,-19.46C-34.229,-19.42 -34.069,-19.37 -33.91,-19.321C-33.89,-19.321 -33.88,-19.31 -33.859,-19.3C-33.37,-19.16 -32.88,-19.01 -32.399,-18.86C-31.199,-18.5 -30.02,-18.12 -28.88,-17.72C-28.31,-17.53 -27.739,-17.33 -27.18,-17.12C-24.77,-16.25 -22.479,-15.321 -20.34,-14.34C-19.739,-14.071 -19.149,-13.79 -18.58,-13.51C-15.529,-12.03 -12.79,-10.44 -10.43,-8.77C-10.09,-8.53 -9.76,-8.29 -9.43,-8.04C-8.14,-7.08 -6.979,-6.09 -5.939,-5.08C-5.77,-4.91 -5.6,-4.75 -5.439,-4.58C-4.609,-3.74 -3.87,-2.88 -3.229,-2.01C-9.09,-8.99 -26.05,-14.6 -47.989,-16.99C-55.39,-17.79 -63.35,-18.23 -71.649,-18.23C-110.66,-18.23 -142.29,-8.55 -142.29,3.39C-142.29,12.13 -125.34,19.66 -100.959,23.07L-100.94,23.07C-100.79,23.11 -100.63,23.16 -100.47,23.2C-98.15,23.78 -95.459,24.08 -92.54,24.06L-92.479,24.06C-85.899,24.679 -78.899,25.01 -71.649,25.01C-66.149,25.01 -60.79,24.82 -55.649,24.46L-55.62,24.46C-43.5,23.59 -32.59,21.78 -23.75,19.28L-23.739,19.28C-9.77,15.33 -1.01,9.67 -1.01,3.39C-1.01,2.38 -1.239,1.39 -1.68,0.42C-0.51,2.62 0.07,4.89 0,7.2Z" style="fill:none;fill-rule:nonzero;stroke:white;stroke-width:2.5px;"/>
            </g>
            <g transform="matrix(1,0,0,1,559.18,835.958)">
                <path d="M0,24.189C-0.02,24.729 -0.06,25.269 -0.14,25.809C-17.239,35.289 -46.41,42.329 -81.64,45.249C-58.55,40.649 -42.84,31.269 -42.5,20.019C-42.43,17.71 -43.01,15.439 -44.18,13.239C-44.51,12.479 -44.979,11.739 -45.58,11.009C-45.62,10.939 -45.67,10.879 -45.729,10.809C-46.37,9.939 -47.109,9.079 -47.939,8.239C-48.1,8.069 -48.27,7.909 -48.439,7.739C-49.479,6.729 -50.64,5.739 -51.93,4.779C-52.25,4.529 -52.59,4.289 -52.93,4.049C-55.29,2.379 -58.029,0.789 -61.08,-0.691C-61.649,-0.971 -62.239,-1.251 -62.84,-1.521C-64.979,-2.501 -67.27,-3.431 -69.68,-4.301C-70.239,-4.511 -70.81,-4.711 -71.38,-4.901C-72.52,-5.301 -73.699,-5.681 -74.899,-6.04C-75.38,-6.201 -75.87,-6.341 -76.359,-6.481C-76.38,-6.491 -76.39,-6.501 -76.41,-6.501C-76.569,-6.551 -76.729,-6.601 -76.899,-6.641C-76.949,-6.661 -77,-6.671 -77.06,-6.681C-77.55,-6.831 -78.06,-6.981 -78.569,-7.111C-78.899,-7.211 -79.239,-7.301 -79.59,-7.391C-79.88,-7.471 -80.18,-7.551 -80.47,-7.621C-81.149,-7.801 -81.83,-7.971 -82.52,-8.141C-83.1,-8.281 -83.689,-8.421 -84.279,-8.551C-84.41,-8.591 -84.529,-8.611 -84.66,-8.641C-85.22,-8.761 -85.779,-8.891 -86.359,-9.011C-88.37,-9.451 -90.43,-9.851 -92.54,-10.211C-93.56,-10.401 -94.6,-10.571 -95.64,-10.721C-96.6,-10.881 -97.56,-11.021 -98.529,-11.141C-99.68,-11.311 -100.85,-11.461 -102.02,-11.591C-103.1,-11.721 -104.189,-11.841 -105.29,-11.951C-106.12,-12.04 -106.96,-12.121 -107.8,-12.181C-108.63,-12.261 -109.47,-12.331 -110.319,-12.381C-110.569,-12.411 -110.819,-12.431 -111.069,-12.441C-111.72,-12.491 -112.37,-12.531 -113.029,-12.561C-114.949,-12.691 -116.89,-12.771 -118.85,-12.831C-161.52,-14.111 -196.51,-1.471 -197.02,15.389C-197.03,15.819 -197.02,16.259 -196.99,16.679L-196.99,16.719C-196.979,16.909 -196.959,17.099 -196.93,17.289C-196.91,17.509 -196.87,17.729 -196.83,17.949C-196.8,18.129 -196.76,18.309 -196.72,18.489C-196.51,19.439 -196.19,20.379 -195.77,21.299C-195.69,21.499 -195.59,21.699 -195.479,21.899C-195.36,22.149 -195.229,22.389 -195.09,22.629C-194.89,22.989 -194.67,23.339 -194.44,23.679C-194.36,23.819 -194.26,23.969 -194.15,24.109C-193.49,25.069 -192.709,25.999 -191.83,26.919C-191.72,27.049 -191.6,27.169 -191.47,27.289C-190.77,27.999 -190.01,28.689 -189.2,29.369C-188.77,29.729 -188.31,30.089 -187.84,30.449C-185.92,31.909 -183.72,33.319 -181.27,34.639C-180.88,34.859 -180.479,35.069 -180.07,35.279C-179.31,35.679 -178.53,36.059 -177.729,36.439C-177.65,36.479 -177.56,36.529 -177.47,36.559C-177.07,36.759 -176.65,36.949 -176.229,37.129C-175.89,37.289 -175.55,37.439 -175.2,37.589C-174.69,37.799 -174.19,38.019 -173.67,38.229C-173.15,38.449 -172.61,38.659 -172.07,38.869L-172.06,38.869C-171.88,38.949 -171.7,39.019 -171.52,39.079L-170.89,39.319C-170.79,39.359 -170.69,39.399 -170.59,39.429C-170.09,39.619 -169.59,39.799 -169.08,39.979C-167.56,40.519 -165.979,41.039 -164.36,41.529C-163.84,41.689 -163.31,41.849 -162.78,41.999C-159.47,42.969 -155.97,43.839 -152.31,44.599C-151.7,44.729 -151.09,44.849 -150.479,44.969C-149.25,45.219 -148,45.449 -146.74,45.659C-146.11,45.769 -145.479,45.879 -144.84,45.979C-163.34,44.96 -180.729,42.889 -196.34,39.999C-205.61,33.819 -211.1,26.729 -211.54,19.309C-211.57,18.829 -211.57,18.349 -211.56,17.859C-210.88,-4.811 -163.1,-21.79 -104.779,-20.081L-104.55,-20.081C-46.13,-18.331 0.681,1.489 0,24.189Z" style="fill-rule:nonzero;stroke:white;stroke-width:2.5px;"/>
            </g>
            <g transform="matrix(1,0,0,1,515.67,851.218)">
                <path d="M0,0.95C0,7.229 -8.76,12.889 -22.729,16.84C-21.4,15.62 -20.56,14.22 -20.31,12.67C-19.1,5.13 -32.26,-3.34 -50.29,-7.011C-51.52,-7.271 -52.78,-7.5 -54.05,-7.7C-73.08,-10.761 -89.63,-7.3 -92.21,0.029C-92.33,0.37 -92.42,0.729 -92.479,1.09C-92.57,1.679 -92.58,2.279 -92.51,2.88L-92.51,2.899C-92.54,3.04 -92.55,3.17 -92.55,3.309C-92.55,3.87 -92.34,4.41 -91.939,4.91C-91.939,4.92 -91.93,4.92 -91.93,4.929C-90.13,7.21 -84.66,8.859 -78.189,8.859C-70.26,8.859 -63.83,6.38 -63.83,3.309C-63.83,3.12 -63.86,2.929 -63.9,2.739C-63.32,3.479 -62.93,4.3 -62.75,5.179C-62.74,5.26 -62.72,5.33 -62.72,5.41C-62.02,9.72 -66.479,14.46 -73.62,17.7C-76.4,18.96 -79.58,20 -83.02,20.7C-85.95,21.29 -88.8,21.59 -91.47,21.62L-91.53,21.62C-94.18,21.359 -96.77,21.059 -99.27,20.72C-99.49,20.689 -99.72,20.66 -99.93,20.63L-99.95,20.63C-124.33,17.22 -141.28,9.689 -141.28,0.95C-141.28,-10.99 -109.65,-20.67 -70.64,-20.67C-62.34,-20.67 -54.38,-20.231 -46.979,-19.431C-25.04,-17.04 -8.08,-11.431 -2.22,-4.45C-2.16,-4.38 -2.11,-4.321 -2.07,-4.25C-1.53,-3.521 -1.06,-2.771 -0.67,-2.021C-0.229,-1.05 0,-0.061 0,0.95" style="fill:rgb(249,198,123);fill-rule:nonzero;"/>
            </g>
            <g transform="matrix(1,0,0,1,515.67,851.218)">
                <path d="M0,0.95C0,7.229 -8.76,12.889 -22.729,16.84C-21.4,15.62 -20.56,14.22 -20.31,12.67C-19.1,5.13 -32.26,-3.34 -50.29,-7.011C-51.52,-7.271 -52.78,-7.5 -54.05,-7.7C-73.08,-10.761 -89.63,-7.3 -92.21,0.029C-92.33,0.37 -92.42,0.729 -92.479,1.09C-92.57,1.679 -92.58,2.279 -92.51,2.88L-92.51,2.899C-92.54,3.04 -92.55,3.17 -92.55,3.309C-92.55,3.87 -92.34,4.41 -91.939,4.91C-91.939,4.92 -91.93,4.92 -91.93,4.929C-90.13,7.21 -84.66,8.859 -78.189,8.859C-70.26,8.859 -63.83,6.38 -63.83,3.309C-63.83,3.12 -63.86,2.929 -63.9,2.739C-63.32,3.479 -62.93,4.3 -62.75,5.179C-62.74,5.26 -62.72,5.33 -62.72,5.41C-62.02,9.72 -66.479,14.46 -73.62,17.7C-76.4,18.96 -79.58,20 -83.02,20.7C-85.95,21.29 -88.8,21.59 -91.47,21.62L-91.53,21.62C-94.18,21.359 -96.77,21.059 -99.27,20.72C-99.49,20.689 -99.72,20.66 -99.93,20.63L-99.95,20.63C-124.33,17.22 -141.28,9.689 -141.28,0.95C-141.28,-10.99 -109.65,-20.67 -70.64,-20.67C-62.34,-20.67 -54.38,-20.231 -46.979,-19.431C-25.04,-17.04 -8.08,-11.431 -2.22,-4.45C-2.16,-4.38 -2.11,-4.321 -2.07,-4.25C-1.53,-3.521 -1.06,-2.771 -0.67,-2.021C-0.229,-1.05 0,-0.061 0,0.95Z" style="fill:none;fill-rule:nonzero;stroke:white;stroke-width:2.5px;"/>
            </g>
            <g transform="matrix(1,0,0,1,451.84,854.527)">
                <path d="M0,0C0,3.07 -6.43,5.55 -14.359,5.55C-20.83,5.55 -26.3,3.9 -28.1,1.62C-28.1,1.61 -28.109,1.61 -28.109,1.601C-28.51,1.101 -28.72,0.561 -28.72,0C-28.72,-0.14 -28.71,-0.27 -28.68,-0.41L-28.68,-0.43C-28.27,-2.5 -24.92,-4.26 -20.229,-5.07L-20.189,-5.07C-18.41,-5.38 -16.43,-5.55 -14.359,-5.55C-6.93,-5.55 -0.81,-3.37 -0.07,-0.57C-0.03,-0.38 0,-0.189 0,0Z" style="fill-rule:nonzero;stroke:white;stroke-width:2.5px;"/>
            </g>
            <g transform="matrix(1,0,0,1,572.35,531.795)">
                <path d="M0,-5.432L67.404,-16.503L67.404,4.177L0,11.071" style="fill:none;fill-rule:nonzero;stroke:white;stroke-width:2.5px;"/>
            </g>
            <g transform="matrix(1,0,0,1,572.35,684.06)">
                <path d="M0,-32.864L67.404,-20.681L67.404,0L0,-16.361" style="fill:none;fill-rule:nonzero;stroke:white;stroke-width:2.5px;"/>
            </g>
            <g transform="matrix(1,0,0,1,283.84,742.948)">
                <path d="M0,10.681L34.21,0L52.08,5.981" style="fill:none;fill-rule:nonzero;stroke:white;stroke-width:2.5px;"/>
            </g>
            <g transform="matrix(0,-1,-1,0,229.08,626.068)">
                <path d="M-39.2,39.2L39.2,39.2" style="fill:none;fill-rule:nonzero;stroke:white;stroke-width:2.5px;"/>
            </g>
            <g transform="matrix(-0.975502,0.21999,0.21999,0.975502,188.73,368.808)">
                <path d="M-68.588,26.058L-48.178,26.058L-1.307,-0.566L-3.89,-12.018L-68.588,26.058Z" style="fill:none;fill-rule:nonzero;stroke:white;stroke-width:2.5px;"/>
            </g>
            <g transform="matrix(1,0,0,1,283.84,748.928)">
                <path d="M0,-362.59L52.08,-345.89L52.08,0L71.32,-5.74L71.32,-16.86" style="fill:none;fill-rule:nonzero;stroke:white;stroke-width:2.5px;"/>
            </g>
            <g transform="matrix(1,0,0,1,189.88,782.948)">
                <path d="M0,-86.21L0,0L51.58,-16.1" style="fill:none;fill-rule:nonzero;stroke:white;stroke-width:2.5px;"/>
            </g>
            <g transform="matrix(0,-1,-1,0,352.87,708.128)">
                <path d="M-34.82,34.82L34.82,34.82" style="fill:none;fill-rule:nonzero;stroke:white;stroke-width:2.5px;"/>
            </g>
            <g transform="matrix(-0.977682,0.21009,0.21009,0.977682,318.653,408.713)">
                <path d="M-18.074,-1.92L0.204,-1.92" style="fill:none;fill-rule:nonzero;stroke:white;stroke-width:2.5px;"/>
            </g>
            <g transform="matrix(0,-1,-1,0,351.62,617.998)">
                <path d="M-33.57,33.57L33.57,33.57" style="fill:none;fill-rule:nonzero;stroke:white;stroke-width:2.5px;"/>
            </g>
            <g transform="matrix(0,1,1,0,263.666,766.284)">
                <path d="M-22.206,-2.296L6.346,-2.296L0.574,-22.206L-26.256,-22.206L-22.206,-2.296Z" style="fill:none;fill-rule:nonzero;stroke:white;stroke-width:2.5px;"/>
            </g>
            <g transform="matrix(1,0,0,1,283.84,772.629)">
                <path d="M0,-33.92L0,-7.07L-22.47,0L-22.47,-28.551L-22.22,-28.5L0,-33.92Z" style="fill:none;fill-rule:nonzero;stroke:white;stroke-width:2.5px;"/>
            </g>
            <g transform="matrix(-0.970143,0.242536,0.242536,0.970143,261.582,744.144)">
                <path d="M-0.041,-0.005L0.001,-0.005" style="fill:none;fill-rule:nonzero;stroke:white;stroke-width:2.5px;"/>
            </g>
            <g transform="matrix(0.982089,0.188417,0.188417,-0.982089,318.535,718.021)">
                <path d="M-0.163,-1.715L18.036,-1.714" style="fill:none;fill-rule:nonzero;stroke:white;stroke-width:2.5px;"/>
            </g>
            <g transform="matrix(-0.972332,0.233604,0.233604,0.972332,336.73,725.285)">
                <path d="M-19.508,-2.31L0.274,-2.31" style="fill:none;fill-rule:nonzero;stroke:white;stroke-width:2.5px;"/>
            </g>
            <g transform="matrix(-0.980581,-0.196116,-0.196116,0.980581,261.621,744.124)">
                <path d="M-0.05,0.005L0,0.005" style="fill:none;fill-rule:nonzero;stroke:white;stroke-width:2.5px;"/>
            </g>
            <g transform="matrix(-0.955371,0.295407,0.295407,0.955371,153.711,800.416)">
                <path d="M-39.715,-6L0.906,-6" style="fill:none;fill-rule:nonzero;stroke:white;stroke-width:2.5px;"/>
            </g>
            <g transform="matrix(1,0,0,1,324.43,679.398)">
                <path d="M0,-28.54L0,-7.229L-6.38,-6.09L-40.59,0L-40.59,-24.019L-6.38,-27.83L0,-28.54Z" style="fill:none;fill-rule:nonzero;stroke:white;stroke-width:2.5px;"/>
            </g>
            <g transform="matrix(1,0,0,1,248.86,696.739)">
                <path d="M0,-37.06L0,-10.68L-7.4,-9.34L-58.98,0L-58.98,-31.47L-7.4,-36.36L0,-37.06Z" style="fill:none;fill-rule:nonzero;stroke:white;stroke-width:2.5px;"/>
            </g>
            <g transform="matrix(-0.999386,-0.0350476,-0.0350476,0.999386,151.109,556.059)">
                <path d="M-38.821,0.681L0.012,0.681" style="fill:none;fill-rule:nonzero;stroke:white;stroke-width:2.5px;"/>
            </g>
            <g transform="matrix(1,0,0,1,461.03,483.212)">
                <path d="M0,-3.173L0,1.093L12.726,0.07L12.726,-4.266L0.086,-3.177C0.057,-3.174 0.028,-3.173 0,-3.173" style="fill:rgb(249,198,123);fill-rule:nonzero;"/>
            </g>
            <g transform="matrix(-0.996793,0.0800192,0.0800192,0.996793,504.636,491.99)">
                <path d="M-8.464,-9.154L-0.341,-9.154L0.367,-0.339L-7.754,-0.316L-8.464,-9.154Z" style="fill:rgb(249,198,123);fill-rule:nonzero;"/>
            </g>
            <g transform="matrix(-0.996786,0.0801104,0.0801104,0.996786,494.931,492.726)">
                <path d="M-8.067,-9.109L-0.341,-9.109L0.365,-0.324L-7.36,-0.302L-8.067,-9.109Z" style="fill:rgb(249,198,123);fill-rule:nonzero;"/>
            </g>
            <g transform="matrix(0.996786,-0.0801111,-0.0801111,-0.996786,476.015,483.785)">
                <path d="M-0.205,0.682L16.634,0.682L16.99,5.112L0.143,5.016L-0.205,0.682Z" style="fill:rgb(249,198,123);fill-rule:nonzero;"/>
            </g>
            <g transform="matrix(0.996788,-0.0800835,-0.0800835,-0.996788,494.809,482.315)">
                <path d="M-0.211,0.722L17.645,0.722L18.01,5.268L0.146,5.165L-0.211,0.722Z" style="fill:rgb(249,198,123);fill-rule:nonzero;"/>
            </g>
            <g transform="matrix(1,0,0,1,522.791,474.639)">
                <path d="M0,4.703C0.065,4.69 0.126,4.664 0.194,4.664C0.225,4.664 0.249,4.678 0.278,4.681L8.841,3.993L8.841,-0.679L-8.451,0.811L-8.451,5.382L0,4.703Z" style="fill:rgb(249,198,123);fill-rule:nonzero;"/>
            </g>
            <g transform="matrix(1,0,0,1,461.11,494.688)">
                <path d="M0,-8.383C-0.027,-8.381 -0.054,-8.38 -0.08,-8.38L-0.08,0.337L4.196,0.006L4.196,-8.72L0,-8.383Z" style="fill:rgb(249,198,123);fill-rule:nonzero;"/>
            </g>
            <g transform="matrix(0,-1,-1,0,492.975,484.783)">
                <path d="M-7.803,0.434L1.005,0.434L0.412,7.803L-8.374,7.803L-7.803,0.434Z" style="fill:rgb(249,198,123);fill-rule:nonzero;"/>
            </g>
            <g transform="matrix(0,1,1,0,522.292,482.334)">
                <path d="M-0.307,-7.953L8.567,-7.953L7.974,-0.307L-0.921,-0.307L-0.307,-7.953Z" style="fill:rgb(249,198,123);fill-rule:nonzero;"/>
            </g>
            <g transform="matrix(1,0,0,1,533.632,472.213)">
                <path d="M0,6.258L18.212,4.795C18.238,4.792 18.262,4.803 18.288,4.803L18.288,0L0,1.575L0,6.258Z" style="fill:rgb(249,198,123);fill-rule:nonzero;"/>
            </g>
            <g transform="matrix(-0.996786,0.0801085,0.0801085,0.996786,476.142,494.168)">
                <path d="M-7.779,-9.042L-0.339,-9.042L0.363,-0.312L-7.075,-0.29L-7.779,-9.042Z" style="fill:rgb(249,198,123);fill-rule:nonzero;"/>
            </g>
            <g transform="matrix(1,0,0,1,512.995,412.406)">
                <path d="M0,61.153C0.108,61.113 0.223,61.084 0.345,61.084C0.394,61.084 0.436,61.105 0.483,61.111L38.839,57.807C38.869,57.804 38.896,57.816 38.925,57.816L38.925,-4.477L-51.965,6.373L-51.965,65.63L0,61.153Z" style="fill:rgb(249,198,123);fill-rule:nonzero;"/>
            </g>
            <g transform="matrix(-0.99679,0.0800647,0.0800647,0.99679,467.688,494.782)">
                <path d="M-6.809,-8.977L-0.339,-8.977L0.36,-0.273L-6.108,-0.254L-6.809,-8.977Z" style="fill:rgb(249,198,123);fill-rule:nonzero;"/>
            </g>
            <g transform="matrix(-0.996791,0.0800457,0.0800457,0.996791,534.027,489.697)">
                <path d="M-8.016,-9.223L-0.345,-9.223L0.37,-0.321L-7.299,-0.298L-8.016,-9.223Z" style="fill:rgb(249,198,123);fill-rule:nonzero;"/>
            </g>
            <g transform="matrix(1,0,0,1,533.632,498.161)">
                <path d="M0,-6.748L0,0.973C0,1.134 -0.046,1.28 -0.113,1.415L18.288,0.277L18.288,-8.163L0,-6.748Z" style="fill:rgb(249,198,123);fill-rule:nonzero;"/>
            </g>
            <g transform="matrix(1,0,0,1,473.756,496.872)">
                <path d="M0,6.36L0,-0.826L-7.206,-0.268C-7.285,-0.248 -7.362,-0.219 -7.449,-0.219C-7.487,-0.219 -7.52,-0.237 -7.558,-0.241L-12.648,0.153C-12.675,0.155 -12.7,0.156 -12.726,0.156L-12.726,7.186L0.008,6.399C0.007,6.385 0,6.374 0,6.36" style="fill:rgb(249,198,123);fill-rule:nonzero;"/>
            </g>
            <g transform="matrix(1,0,0,1,551.92,479.662)">
                <path d="M0,8.345L0,-0.654L-8.642,0.04L-8.642,8.999L-0.073,8.336C-0.047,8.334 -0.025,8.345 0,8.345" style="fill:rgb(249,198,123);fill-rule:nonzero;"/>
            </g>
            <g transform="matrix(0,1,1,0,531.951,481.572)">
                <path d="M-0.32,-7.966L8.581,-7.966L7.99,-0.32L-0.935,-0.32L-0.32,-7.966Z" style="fill:rgb(249,198,123);fill-rule:nonzero;"/>
            </g>
            <g transform="matrix(1,0,0,1,492.544,495.631)">
                <path d="M0,6.479C0,6.475 -0.003,6.47 -0.003,6.466L-0.003,-1.038L-16.788,0.261L-16.788,7.517L0,6.479Z" style="fill:rgb(249,198,123);fill-rule:nonzero;"/>
            </g>
            <g transform="matrix(1,0,0,1,512.34,494.809)">
                <path d="M0,5.429L0,-1.748L-17.799,-0.371L-17.799,7.177L0.243,6.062C0.098,5.888 0,5.673 0,5.429" style="fill:rgb(249,198,123);fill-rule:nonzero;"/>
            </g>
            <g transform="matrix(1,0,0,1,531.632,493.208)">
                <path d="M0,5.927L0,-1.639L-17.292,-0.302L-17.292,7.031C-17.292,7.232 -17.366,7.408 -17.469,7.566L0.186,6.474C0.078,6.315 0,6.134 0,5.927" style="fill:rgb(249,198,123);fill-rule:nonzero;"/>
            </g>
            <g transform="matrix(1,0,0,1,381.311,477.876)">
                <path d="M0,3.905C0,4.029 -0.029,4.145 -0.071,4.254L15.508,4.648C15.479,4.552 15.449,4.457 15.449,4.352L15.449,-0.405L7.761,-0.573C7.755,-0.573 7.751,-0.57 7.746,-0.57C7.74,-0.57 7.734,-0.574 7.728,-0.574L0,-0.743L0,3.905Z" style="fill:rgb(249,198,123);fill-rule:nonzero;"/>
            </g>
            <g transform="matrix(0.999759,0.0219571,0.0219571,-0.999759,398.678,475.437)">
                <path d="M0.084,-0.076L7.097,-0.076L6.928,7.653L-0.085,7.632L0.084,-0.076Z" style="fill:rgb(249,198,123);fill-rule:nonzero;"/>
            </g>
            <g transform="matrix(0,-1,-1,0,397.325,468.203)">
                <path d="M-7.268,0.565L0.437,0.565L0.565,7.268L-7.121,7.268L-7.268,0.565Z" style="fill:rgb(249,198,123);fill-rule:nonzero;"/>
            </g>
            <g transform="matrix(0,-1,-1,0,415.41,468.236)">
                <path d="M-7.638,0.26L0.12,0.26L0.26,7.638L-7.476,7.638L-7.638,0.26Z" style="fill:rgb(249,198,123);fill-rule:nonzero;"/>
            </g>
            <g transform="matrix(-0.999909,-0.0134826,-0.0134826,0.999909,398.736,465.785)">
                <path d="M-16.365,-3.782L0.027,-3.782L-0.024,0.018L-16.417,0.11L-16.365,-3.782Z" style="fill:rgb(249,198,123);fill-rule:nonzero;"/>
            </g>
            <g transform="matrix(0.999759,0.0219336,0.0219336,-0.999759,381.23,475.057)">
                <path d="M0.083,-0.073L6.831,-0.073L6.662,7.605L-0.085,7.586L0.083,-0.073Z" style="fill:rgb(249,198,123);fill-rule:nonzero;"/>
            </g>
            <g transform="matrix(-0.999909,-0.0134624,-0.0134624,0.999909,381.288,465.453)">
                <path d="M-15.424,-3.686L0.026,-3.686L-0.024,0.017L-15.475,0.104L-15.424,-3.686Z" style="fill:rgb(249,198,123);fill-rule:nonzero;"/>
            </g>
            <g transform="matrix(0.999758,0.0219774,0.0219774,-0.999758,434.985,476.234)">
                <path d="M0.085,-0.076L7.047,-0.076L6.875,7.758L-0.087,7.738L0.085,-0.076Z" style="fill:rgb(249,198,123);fill-rule:nonzero;"/>
            </g>
            <g transform="matrix(1,0,0,1,447.24,466.564)">
                <path d="M0,-3.908L-0.011,-3.908L-12.172,-4.072L-12.172,-0.069L0,0.164L0,-3.908Z" style="fill:rgb(249,198,123);fill-rule:nonzero;"/>
            </g>
            <g transform="matrix(1,0,0,1,367.576,421.972)">
                <path d="M0,37.61L79.664,38.684L79.664,-1.074L-0.246,9.196L-0.246,37.661C-0.166,37.64 -0.086,37.611 0,37.61" style="fill:rgb(249,198,123);fill-rule:nonzero;"/>
            </g>
            <g transform="matrix(1,0,0,1,447.24,476.519)">
                <path d="M0,-7.79L-0.016,-7.79L-3.212,-7.851L-3.212,-0.01L0,0.061L0,-7.79Z" style="fill:rgb(249,198,123);fill-rule:nonzero;"/>
            </g>
            <g transform="matrix(1,0,0,1,379.311,465.226)">
                <path d="M0,-3.486L-11.763,-3.644C-11.841,-3.645 -11.909,-3.674 -11.981,-3.692L-11.981,0.025C-11.898,0.005 -11.816,-0.022 -11.73,-0.017L0,0.206L0,-3.486Z" style="fill:rgb(249,198,123);fill-rule:nonzero;"/>
            </g>
            <g transform="matrix(1,0,0,1,398.76,478.276)">
                <path d="M0,3.952C0,4.074 -0.03,4.187 -0.069,4.295L16.417,4.712C16.411,4.665 16.39,4.624 16.39,4.576L16.39,-0.401L8.335,-0.577C8.232,-0.542 8.126,-0.512 8.012,-0.512C7.872,-0.512 7.739,-0.541 7.619,-0.593L0,-0.76L0,3.952Z" style="fill:rgb(249,198,123);fill-rule:nonzero;"/>
            </g>
            <g transform="matrix(0,-1,-1,0,380.271,468.281)">
                <path d="M-6.807,0.96L0.848,0.96L0.96,6.807L-6.678,6.807L-6.807,0.96Z" style="fill:rgb(249,198,123);fill-rule:nonzero;"/>
            </g>
            <g transform="matrix(1,0,0,1,447.222,483.531)">
                <path d="M0,-4.952L-12.153,-5.219L-12.153,-0.147C-12.153,-0.109 -12.17,-0.077 -12.174,-0.041L0.019,0.267L0.019,-4.952L0,-4.952Z" style="fill:rgb(249,198,123);fill-rule:nonzero;"/>
            </g>
            <g transform="matrix(1,0,0,1,379.311,477.085)">
                <path d="M0,4.696L0,0.004L-11.771,-0.255C-11.846,-0.257 -11.912,-0.285 -11.981,-0.302L-11.981,4.694L0.061,4.998C0.03,4.901 0,4.803 0,4.696" style="fill:rgb(249,198,123);fill-rule:nonzero;"/>
            </g>
            <g transform="matrix(1,0,0,1,371.464,467.161)">
                <path d="M0,7.754L0,0.122L-3.921,0.047C-3.997,0.046 -4.063,0.017 -4.134,0L-4.134,7.717C-4.051,7.697 -3.971,7.669 -3.88,7.669L0,7.754Z" style="fill:rgb(249,198,123);fill-rule:nonzero;"/>
            </g>
            <g transform="matrix(0,1,1,0,424.588,468.634)">
                <path d="M-0.479,-7.438L7.285,-7.438L7.438,-0.479L-0.346,-0.479L-0.479,-7.438Z" style="fill:rgb(249,198,123);fill-rule:nonzero;"/>
            </g>
            <g transform="matrix(1,0,0,1,417.15,478.507)">
                <path d="M0,4.345C0,4.41 -0.025,4.468 -0.038,4.53L15.93,4.933C15.929,4.914 15.918,4.897 15.918,4.878L15.918,-0.238L8,-0.412C7.986,-0.411 7.974,-0.404 7.959,-0.404C7.941,-0.404 7.926,-0.413 7.908,-0.414L0,-0.588L0,4.345Z" style="fill:rgb(249,198,123);fill-rule:nonzero;"/>
            </g>
            <g transform="matrix(-0.999817,-0.0191085,-0.0191085,0.999817,426.037,476.067)">
                <path d="M-6.885,-7.742L0.075,-7.742L-0.074,0.047L-7.034,0.066L-6.885,-7.742Z" style="fill:rgb(249,198,123);fill-rule:nonzero;"/>
            </g>
            <g transform="matrix(0.999819,0.0190316,0.0190316,-0.999819,417.117,466.002)">
                <path d="M0.036,-0.151L15.957,-0.151L15.881,3.84L-0.039,3.752L0.036,-0.151Z" style="fill:rgb(249,198,123);fill-rule:nonzero;"/>
            </g>
            <g transform="matrix(-0.983036,-0.183413,-0.183413,0.983036,317.299,464.388)">
                <path d="M-0.803,-6.61L0.577,-6.61L-0.609,0.059L-2.048,0.064L-0.803,-6.61Z" style="fill:white;fill-rule:nonzero;"/>
            </g>
            <g transform="matrix(0,1,1,0,319.86,453.384)">
                <path d="M-0.56,-3.06L2.594,-3.06L3.06,-0.56L-0.087,-0.56L-0.56,-3.06Z" style="fill:white;fill-rule:nonzero;"/>
            </g>
            <g transform="matrix(1,0,0,1,282.848,396.539)">
                <path d="M0,61.387L2.243,61.812L2.243,55.124L-0.219,54.665L0.068,53.124L2.243,53.53L2.243,50.287L-0.179,49.829L0.112,48.29L2.243,48.693L2.243,1.636L33.953,11.267L33.953,54.691L36.453,55.163L36.453,10.34C36.453,9.79 36.093,9.304 35.566,9.144L1.356,-1.246C0.977,-1.361 0.567,-1.29 0.248,-1.054C-0.07,-0.819 -0.257,-0.446 -0.257,-0.05L-0.257,62.748L0,61.387Z" style="fill:white;fill-rule:nonzero;"/>
            </g>
            <g transform="matrix(1,0,0,1,316.8,464.733)">
                <path d="M0,1.215L0,3.727L-6.678,2.509L-6.681,2.851C-6.685,3.284 -7.038,3.632 -7.471,3.628C-7.903,3.624 -8.251,3.27 -8.248,2.838L-8.242,2.224L-21.791,-0.247C-21.934,-0.043 -22.161,0.099 -22.429,0.096C-22.792,0.093 -23.083,-0.162 -23.168,-0.498L-31.71,-2.056L-31.71,-4.788L-34.21,-5.261L-34.21,-1.014C-34.21,-0.41 -33.778,0.108 -33.184,0.215L1.026,6.455C1.1,6.469 1.175,6.476 1.25,6.476C1.54,6.476 1.824,6.375 2.051,6.186C2.335,5.948 2.5,5.596 2.5,5.226L2.5,1.688L0,1.215Z" style="fill:white;fill-rule:nonzero;"/>
            </g>
            <g transform="matrix(1,0,0,1,241.647,513.182)">
                <path d="M0,-30.759C-0.362,-30.814 -0.727,-30.708 -1.002,-30.471C-1.278,-30.234 -1.437,-29.887 -1.437,-29.523L-1.437,27.342L1.063,27.464L1.063,-28.07L7.026,-27.167C7.387,-27.112 7.752,-27.218 8.028,-27.455C8.305,-27.693 8.463,-28.039 8.463,-28.403L8.463,-55.593C8.463,-56.201 8.026,-56.721 7.426,-56.824L0.026,-58.105C-0.653,-58.223 -1.301,-57.767 -1.419,-57.086C-1.537,-56.406 -1.081,-55.759 -0.4,-55.641L5.963,-54.541L5.963,-29.857L0,-30.759Z" style="fill:white;fill-rule:nonzero;"/>
            </g>
            <g transform="matrix(0.999136,0.0415641,0.0415641,-0.999136,240.149,545.258)">
                <path d="M0.063,-0.051L2.566,-0.051L2.437,3.037L-0.066,3.054L0.063,-0.051Z" style="fill:white;fill-rule:nonzero;"/>
            </g>
            <g transform="matrix(-0.999152,-0.0411651,-0.0411651,0.999152,240.07,553.893)">
                <path d="M-2.358,-6.902L0.144,-6.902L-0.143,0.059L-2.644,0.049L-2.358,-6.902Z" style="fill:white;fill-rule:nonzero;"/>
            </g>
            <g transform="matrix(1,0,0,1,262.151,745.003)">
                <path d="M0,-366.841C-0.296,-367.079 -0.687,-367.166 -1.056,-367.084L-20.966,-362.594C-21.639,-362.442 -22.062,-361.773 -21.91,-361.1C-21.758,-360.426 -21.088,-360.001 -20.416,-360.155L-2.031,-364.301L-2.031,-2.456L-19.441,-5.997L-19.441,-56.561L-13.068,-57.715C-12.473,-57.823 -12.041,-58.34 -12.041,-58.945L-12.041,-85.325C-12.041,-85.676 -12.189,-86.012 -12.449,-86.25C-12.709,-86.486 -13.055,-86.602 -13.408,-86.569L-19.441,-86L-19.441,-157.448L-13.277,-157.515C-12.592,-157.522 -12.041,-158.08 -12.041,-158.765L-12.041,-185.205C-12.041,-185.882 -12.579,-186.435 -13.255,-186.454L-17.229,-186.567L-17.238,-185.583C-17.243,-185.12 -17.622,-184.748 -18.085,-184.752C-18.548,-184.757 -18.921,-185.136 -18.917,-185.599L-18.907,-186.614L-19.441,-186.63L-19.441,-189.273L-21.941,-189.366L-21.941,-185.415C-21.941,-184.738 -21.403,-184.184 -20.727,-184.165L-14.541,-183.99L-14.541,-160.001L-20.705,-159.935C-21.39,-159.927 -21.941,-159.37 -21.941,-158.685L-21.941,-84.626C-21.941,-84.274 -21.792,-83.938 -21.532,-83.701C-21.272,-83.465 -20.925,-83.347 -20.573,-83.382L-14.541,-83.951L-14.541,-59.989L-20.914,-58.836C-21.508,-58.727 -21.941,-58.21 -21.941,-57.605L-21.941,-4.975C-21.941,-4.381 -21.522,-3.869 -20.94,-3.751L-1.03,0.299C-0.947,0.317 -0.864,0.325 -0.781,0.325C-0.495,0.325 -0.215,0.227 0.01,0.042C0.301,-0.195 0.469,-0.55 0.469,-0.925L0.469,-365.865C0.469,-366.245 0.296,-366.604 0,-366.841" style="fill:white;fill-rule:nonzero;"/>
            </g>
            <g transform="matrix(-0.999233,-0.0391681,-0.0391681,0.999233,282.444,556.261)">
                <path d="M-2.097,-7.568L0.15,-7.568L-0.149,0.052L-2.395,0.041L-2.097,-7.568Z" style="fill:white;fill-rule:nonzero;"/>
            </g>
            <g transform="matrix(0.999233,0.0391699,0.0391699,-0.999233,282.521,546.855)">
                <path d="M0.071,-0.048L2.573,-0.048L2.43,3.613L-0.073,3.648L0.071,-0.048Z" style="fill:white;fill-rule:nonzero;"/>
            </g>
            <g transform="matrix(-0.999231,-0.0392096,-0.0392096,0.999231,316.656,557.44)">
                <path d="M-1.486,-7.407L0.147,-7.407L-0.146,0.038L-1.778,0.029L-1.486,-7.407Z" style="fill:white;fill-rule:nonzero;"/>
            </g>
            <g transform="matrix(1,0,0,1,316.8,562.904)">
                <path d="M0,-3.633L0,-1.378L-5.408,-1.562L-5.408,-0.962C-5.408,-0.469 -5.808,-0.069 -6.301,-0.069C-6.794,-0.069 -7.194,-0.469 -7.194,-0.962L-7.194,-1.622L-22.495,-2.141L-22.495,-0.663C-22.495,-0.17 -22.895,0.23 -23.388,0.23C-23.88,0.23 -24.281,-0.17 -24.281,-0.663L-24.281,-2.202L-31.71,-2.454L-31.71,-4.713L-34.21,-4.798L-34.21,-1.245C-34.21,-0.571 -33.676,-0.019 -33.002,0.004L1.208,1.164C1.222,1.165 1.236,1.165 1.25,1.165C1.574,1.165 1.885,1.039 2.119,0.814C2.362,0.578 2.5,0.254 2.5,-0.085L2.5,-3.548L0,-3.633Z" style="fill:white;fill-rule:nonzero;"/>
            </g>
            <g transform="matrix(1,0,0,1,285.09,490.803)">
                <path d="M0,50.749L0,0.919L31.71,5.711L31.71,52.444L34.21,52.577L34.21,4.636C34.21,4.018 33.758,3.493 33.147,3.4L-1.063,-1.77C-1.425,-1.828 -1.79,-1.719 -2.065,-1.482C-2.341,-1.244 -2.5,-0.898 -2.5,-0.534L-2.5,50.615L0,50.749Z" style="fill:white;fill-rule:nonzero;"/>
            </g>
            <g transform="matrix(0,1,1,0,319.704,545.439)">
                <path d="M-0.404,-2.904L2.806,-2.904L2.904,-0.404L-0.27,-0.404L-0.404,-2.904Z" style="fill:white;fill-rule:nonzero;"/>
            </g>
            <g transform="matrix(1,0,0,1,461.03,575.989)">
                <path d="M0,-4.128L0,0.142L12.726,0.073L12.726,-4.27L0.011,-4.128L0,-4.128Z" style="fill:rgb(249,198,123);fill-rule:nonzero;"/>
            </g>
            <g transform="matrix(-0.999986,0.00531053,0.00531053,0.999986,504.266,586.768)">
                <rect x="-8.121" y="-8.87" width="8.144" height="8.849" style="fill:rgb(249,198,123);"/>
            </g>
            <g transform="matrix(0,-1,-1,0,493.254,578.692)">
                <rect x="-8.082" y="0.713" width="8.773" height="7.369" style="fill:rgb(249,198,123);"/>
            </g>
            <g transform="matrix(0.999986,-0.00536185,-0.00536185,-0.999986,475.768,576.097)">
                <path d="M-0.012,0.045L16.773,0.045L16.797,4.497L0.011,4.399L-0.012,0.045Z" style="fill:rgb(249,198,123);fill-rule:nonzero;"/>
            </g>
            <g transform="matrix(0.999985,-0.00539348,-0.00539348,-0.999985,494.554,575.999)">
                <path d="M-0.012,0.048L17.787,0.048L17.811,4.614L0.012,4.511L-0.012,0.048Z" style="fill:rgb(249,198,123);fill-rule:nonzero;"/>
            </g>
            <g transform="matrix(0,1,1,0,502.78,578.488)">
                <rect x="-0.538" y="-8.24" width="8.801" height="7.702" style="fill:rgb(249,198,123);"/>
            </g>
            <g transform="matrix(0.999986,-0.00537813,-0.00537813,-0.999986,514.353,575.891)">
                <path d="M-0.013,0.047L17.28,0.047L17.305,4.724L0.012,4.624L-0.013,0.047Z" style="fill:rgb(249,198,123);fill-rule:nonzero;"/>
            </g>
            <g transform="matrix(0,1,1,0,541.902,578.365)">
                <rect x="-0.624" y="-8.271" width="8.917" height="7.646" style="fill:rgb(249,198,123);"/>
            </g>
            <g transform="matrix(1,0,0,1,492.56,588.774)">
                <path d="M0,6.363C-0.003,6.33 -0.02,6.301 -0.02,6.267L-0.02,0L-16.805,0.041L-16.805,5.858C-16.805,5.946 -16.834,6.026 -16.855,6.107L0,6.363Z" style="fill:rgb(249,198,123);fill-rule:nonzero;"/>
            </g>
            <g transform="matrix(1,0,0,1,533.632,570.848)">
                <path d="M0,4.893L8.646,4.847L18.287,4.795L18.288,4.795L18.288,0L0,0.204L0,4.893Z" style="fill:rgb(249,198,123);fill-rule:nonzero;"/>
            </g>
            <g transform="matrix(1,0,0,1,514.34,586.681)">
                <path d="M0,-8.837L0,0.041L7.646,0.023L7.646,-8.801C7.646,-8.829 7.659,-8.852 7.661,-8.878L0,-8.837Z" style="fill:rgb(249,198,123);fill-rule:nonzero;"/>
            </g>
            <g transform="matrix(1,0,0,1,551.908,520.672)">
                <path d="M0,48.176L0.012,48.176L0.012,-1.013L-90.878,4.607L-90.878,49.189L0,48.176Z" style="fill:rgb(249,198,123);fill-rule:nonzero;"/>
            </g>
            <g transform="matrix(-0.999986,0.00532277,0.00532277,0.999986,543.302,586.676)">
                <rect x="-8.666" y="-8.988" width="8.69" height="8.965" style="fill:rgb(249,198,123);"/>
            </g>
            <g transform="matrix(1,0,0,1,523.968,586.658)">
                <path d="M0,-8.866C0.003,-8.836 0.018,-8.81 0.018,-8.779L0.018,0.041L7.664,0.023L7.664,-8.907L0,-8.866Z" style="fill:rgb(249,198,123);fill-rule:nonzero;"/>
            </g>
            <g transform="matrix(1,0,0,1,542.282,596.016)">
                <path d="M0,-7.36C-0.001,-7.36 -0.003,-7.359 -0.004,-7.359C-0.006,-7.359 -0.007,-7.36 -0.008,-7.36L-8.65,-7.339L-8.65,-0.255L9.638,0.023L9.638,-7.383L0,-7.36Z" style="fill:rgb(249,198,123);fill-rule:nonzero;"/>
            </g>
            <g transform="matrix(1,0,0,1,473.756,589.039)">
                <path d="M0,5.593L0,-0.22L-12.724,-0.189L-12.726,-0.189L-12.726,5.619L0.044,5.813C0.027,5.74 0,5.671 0,5.593" style="fill:rgb(249,198,123);fill-rule:nonzero;"/>
            </g>
            <g transform="matrix(-0.999985,0.00539366,0.00539366,0.999985,475.78,586.835)">
                <rect x="-7.44" y="-8.783" width="7.463" height="8.763" style="fill:rgb(249,198,123);"/>
            </g>
            <g transform="matrix(-0.999985,0.00542712,0.00542712,0.999985,467.331,586.852)">
                <rect x="-6.473" y="-8.754" width="6.497" height="8.737" style="fill:rgb(249,198,123);"/>
            </g>
            <g transform="matrix(1,0,0,1,531.632,595.73)">
                <path d="M0,-7.049L-8.447,-7.029C-8.514,-7.015 -8.575,-6.988 -8.646,-6.988C-8.715,-6.988 -8.775,-7.015 -8.841,-7.028L-17.292,-7.007L-17.292,-0.262L0,0L0,-7.049Z" style="fill:rgb(249,198,123);fill-rule:nonzero;"/>
            </g>
            <g transform="matrix(1,0,0,1,465.307,586.85)">
                <path d="M0,-8.742L-4.271,-8.719L-4.276,-8.719L-4.276,0L0,-0.01L0,-8.742Z" style="fill:rgb(249,198,123);fill-rule:nonzero;"/>
            </g>
            <g transform="matrix(1,0,0,1,512.34,595.437)">
                <path d="M0,-6.71L-8.989,-6.688C-9.026,-6.684 -9.059,-6.667 -9.097,-6.667C-9.133,-6.667 -9.165,-6.684 -9.2,-6.688L-17.799,-6.667L-17.799,-0.396C-17.799,-0.352 -17.818,-0.313 -17.824,-0.27L0,0L0,-6.71Z" style="fill:rgb(249,198,123);fill-rule:nonzero;"/>
            </g>
            <g transform="matrix(-0.997718,-0.0675249,-0.0675249,0.997718,503.971,677.644)">
                <path d="M-7.807,-8.584L0.309,-8.584L-0.289,0.24L-8.406,0.264L-7.807,-8.584Z" style="fill:rgb(249,198,123);fill-rule:nonzero;"/>
            </g>
            <g transform="matrix(-0.99772,-0.0674905,-0.0674905,0.99772,494.269,676.97)">
                <path d="M-7.413,-8.567L0.307,-8.567L-0.288,0.226L-8.009,0.25L-7.413,-8.567Z" style="fill:rgb(249,198,123);fill-rule:nonzero;"/>
            </g>
            <g transform="matrix(0.997712,0.0676016,0.0676016,-0.997712,494.451,665.79)">
                <path d="M0.13,-0.598L17.97,-0.598L17.662,3.953L-0.171,3.85L0.13,-0.598Z" style="fill:rgb(249,198,123);fill-rule:nonzero;"/>
            </g>
            <g transform="matrix(1,0,0,1,461.03,660.708)">
                <path d="M0,3.433C0.023,3.432 0.044,3.422 0.067,3.422L5.188,3.77C5.219,3.767 5.245,3.751 5.276,3.751C5.34,3.751 5.395,3.777 5.454,3.787L12.726,4.28L12.726,-0.058L0,-0.847L0,3.433Z" style="fill:rgb(249,198,123);fill-rule:nonzero;"/>
            </g>
            <g transform="matrix(1,0,0,1,492.541,677.892)">
                <path d="M0,6.605L0,1.186L-16.785,0L-16.785,4.738C-16.785,4.939 -16.859,5.115 -16.961,5.271L0,6.605Z" style="fill:rgb(249,198,123);fill-rule:nonzero;"/>
            </g>
            <g transform="matrix(1,0,0,1,465.307,666.13)">
                <path d="M0,9.018L0,0.29L-4.276,0L-4.276,8.73C-4.252,8.73 -4.23,8.719 -4.206,8.72L0,9.018Z" style="fill:rgb(249,198,123);fill-rule:nonzero;"/>
            </g>
            <g transform="matrix(0,-1,-1,0,486.891,655.124)">
                <path d="M-11.135,-5.649L-6.689,-5.649L-5.649,11.135L-9.998,11.135L-11.135,-5.649Z" style="fill:rgb(249,198,123);fill-rule:nonzero;"/>
            </g>
            <g transform="matrix(0.997715,0.0675644,0.0675644,-0.997715,514.245,667.149)">
                <path d="M0.135,-0.58L17.466,-0.58L17.151,4.082L-0.174,3.982L0.135,-0.58Z" style="fill:rgb(249,198,123);fill-rule:nonzero;"/>
            </g>
            <g transform="matrix(0,1,1,0,522.87,670.626)">
                <path d="M-0.884,-8.53L7.99,-8.53L8.53,-0.884L-0.366,-0.884L-0.884,-8.53Z" style="fill:rgb(249,198,123);fill-rule:nonzero;"/>
            </g>
            <g transform="matrix(1,0,0,1,533.632,670.282)">
                <path d="M0,-5.923L0,-1.238L18.288,0L18.288,-4.792C18.268,-4.792 18.247,-4.793 18.226,-4.794L0,-5.923Z" style="fill:rgb(249,198,123);fill-rule:nonzero;"/>
            </g>
            <g transform="matrix(0,-1,-1,0,493.51,668.736)">
                <path d="M-8.339,0.97L0.471,0.97L0.97,8.339L-7.818,8.339L-8.339,0.97Z" style="fill:rgb(249,198,123);fill-rule:nonzero;"/>
            </g>
            <g transform="matrix(1,0,0,1,551.92,680.69)">
                <path d="M0,-8.405C-0.021,-8.405 -0.042,-8.406 -0.063,-8.407L-8.642,-8.988L-8.642,-0.028L0,0.583L0,-8.405Z" style="fill:rgb(249,198,123);fill-rule:nonzero;"/>
            </g>
            <g transform="matrix(-0.997704,-0.0677228,-0.0677228,0.997704,533.355,679.733)">
                <path d="M-7.352,-8.683L0.312,-8.683L-0.293,0.228L-7.958,0.249L-7.352,-8.683Z" style="fill:rgb(249,198,123);fill-rule:nonzero;"/>
            </g>
            <g transform="matrix(1,0,0,1,461.092,616.547)">
                <path d="M0,41.313L13.602,42.156C13.623,42.155 13.642,42.143 13.664,42.143C13.706,42.143 13.742,42.163 13.782,42.167L90.828,46.941L90.828,-4.239L-0.062,-5.628L-0.062,41.323C-0.04,41.323 -0.021,41.313 0,41.313" style="fill:rgb(249,198,123);fill-rule:nonzero;"/>
            </g>
            <g transform="matrix(1,0,0,1,473.756,677.246)">
                <path d="M0,5.384L0,0.504L-12.726,-0.396L-12.726,4.773L0.083,5.78C0.03,5.658 0,5.526 0,5.384" style="fill:rgb(249,198,123);fill-rule:nonzero;"/>
            </g>
            <g transform="matrix(1,0,0,1,551.853,687.88)">
                <path d="M0,-4.608L-18.222,-5.896L-18.222,-0.229C-18.222,-0.202 -18.234,-0.178 -18.237,-0.152L0.066,1.288L0.066,-4.605C0.045,-4.605 0.022,-4.606 0,-4.608" style="fill:rgb(249,198,123);fill-rule:nonzero;"/>
            </g>
            <g transform="matrix(1,0,0,1,512.34,684.795)">
                <path d="M0,-4.317L-17.799,-5.576L-17.799,-0.219C-17.799,-0.192 -17.812,-0.169 -17.814,-0.142L0,1.259L0,-4.317Z" style="fill:rgb(249,198,123);fill-rule:nonzero;"/>
            </g>
            <g transform="matrix(0,1,1,0,532.53,671.294)">
                <path d="M-0.898,-8.545L8.004,-8.545L8.545,-0.898L-0.38,-0.898L-0.898,-8.545Z" style="fill:rgb(249,198,123);fill-rule:nonzero;"/>
            </g>
            <g transform="matrix(-0.997712,-0.0676074,-0.0676074,0.997712,467.033,675.082)">
                <path d="M-6.161,-8.524L0.303,-8.524L-0.287,0.19L-6.752,0.208L-6.161,-8.524Z" style="fill:rgb(249,198,123);fill-rule:nonzero;"/>
            </g>
            <g transform="matrix(-0.997708,-0.0676708,-0.0676708,0.997708,475.484,675.648)">
                <path d="M-7.127,-8.519L0.306,-8.519L-0.287,0.22L-7.722,0.241L-7.127,-8.519Z" style="fill:rgb(249,198,123);fill-rule:nonzero;"/>
            </g>
            <g transform="matrix(1,0,0,1,531.632,686.349)">
                <path d="M0,-4.506L-17.292,-5.729L-17.292,-0.216C-17.292,-0.188 -17.306,-0.165 -17.308,-0.138L0,1.223L0,-4.506Z" style="fill:rgb(249,198,123);fill-rule:nonzero;"/>
            </g>
            <g transform="matrix(0,1,1,0,544.21,695.488)">
                <path d="M-83.18,7.71L-6.32,7.71L-13.47,-83.18L-84.57,-83.18L-83.18,7.71Z" style="fill:none;fill-rule:nonzero;stroke:white;stroke-width:2.5px;"/>
            </g>
            <g transform="matrix(0,1,1,0,544.665,603.294)">
                <path d="M-83.635,7.255L-7.255,7.255L-8.635,-83.635L-78.015,-83.635L-83.635,7.255Z" style="fill:none;fill-rule:nonzero;stroke:white;stroke-width:2.5px;"/>
            </g>
            <g transform="matrix(0,1,1,0,554.54,501.439)">
                <path d="M-93.51,-2.62L-3,-2.62L2.62,-93.51L-82.66,-93.51L-93.51,-2.62Z" style="fill:none;fill-rule:nonzero;stroke:white;stroke-width:2.5px;"/>
            </g>
            <g transform="matrix(1,0,0,1,404.208,526.072)">
                <path d="M0,8.022L0,-9.786L-13.146,-0.762L-13.146,17.808L0.245,8.657C0.098,8.483 0,8.267 0,8.022" style="fill:rgb(249,198,123);fill-rule:nonzero;"/>
            </g>
            <g transform="matrix(1,0,0,1,419.581,515.029)">
                <path d="M0,9.362C-0.134,9.192 -0.227,8.987 -0.227,8.753L-0.227,-9.139L-13.39,-0.103C-13.387,-0.074 -13.373,-0.048 -13.373,-0.018L-13.373,18.501L0,9.362Z" style="fill:rgb(249,198,123);fill-rule:nonzero;"/>
            </g>
            <g transform="matrix(1,0,0,1,434.504,522.842)">
                <path d="M0,-18.487L-13.269,-18.824C-13.268,-18.798 -13.267,-18.773 -13.268,-18.747C-13.199,-18.611 -13.15,-18.463 -13.15,-18.3L-13.15,0.337L0.14,-8.745C0.056,-8.892 -0.005,-9.052 -0.005,-9.233L-0.005,-18.462C-0.005,-18.471 0,-18.478 0,-18.487" style="fill:rgb(249,198,123);fill-rule:nonzero;"/>
            </g>
            <g transform="matrix(1,0,0,1,389.336,535.854)">
                <path d="M0,9.205C-0.167,9.026 -0.273,8.79 -0.273,8.527L-0.273,-9.171L-13.419,-0.148L-13.419,18.376L0,9.205Z" style="fill:rgb(249,198,123);fill-rule:nonzero;"/>
            </g>
            <g transform="matrix(0,1,1,0,446.081,503.247)">
                <path d="M1.159,-9.582L9.582,-9.582L2.242,1.159L1.432,1.159L1.159,-9.582Z" style="fill:rgb(249,198,123);fill-rule:nonzero;"/>
            </g>
            <g transform="matrix(1,0,0,1,418.642,537.872)">
                <path d="M0,-33.92L-51.312,-35.224L-51.312,1.304L0,-33.92Z" style="fill:rgb(249,198,123);fill-rule:nonzero;"/>
            </g>
            <g transform="matrix(1,0,0,1,373.917,542.417)">
                <path d="M0,12.344L0,-5.337L-6.021,-1.204C-6.194,-1.085 -6.391,-1.028 -6.586,-1.028L-6.587,-1.029L-6.587,17.681L0.26,13.002C0.103,12.825 0,12.599 0,12.344" style="fill:rgb(249,198,123);fill-rule:nonzero;"/>
            </g>
            <g transform="matrix(1,0,0,1,434.499,592.553)">
                <path d="M0,10.632L0,-8.38L-13.146,-0.321L-13.146,19.012L0.106,11.063C0.043,10.931 0,10.788 0,10.632" style="fill:rgb(249,198,123);fill-rule:nonzero;"/>
            </g>
            <g transform="matrix(1,0,0,1,404.208,611.697)">
                <path d="M0,9.084L0,-8.953L-13.146,-0.895L-13.146,18.037L0.438,9.89C0.18,9.709 0,9.424 0,9.084" style="fill:rgb(249,198,123);fill-rule:nonzero;"/>
            </g>
            <g transform="matrix(1,0,0,1,389.56,620.25)">
                <path d="M0,10.385C-0.292,10.21 -0.498,9.906 -0.498,9.539L-0.498,-8.22L-13.644,-0.161L-13.644,18.302C-13.644,18.409 -13.673,18.508 -13.705,18.605L0,10.385Z" style="fill:rgb(249,198,123);fill-rule:nonzero;"/>
            </g>
            <g transform="matrix(1,0,0,1,419.353,602.323)">
                <path d="M0,9.462L0,-8.864L-13.146,-0.806L-13.146,18.326L0.369,10.221C0.148,10.037 0,9.772 0,9.462" style="fill:rgb(249,198,123);fill-rule:nonzero;"/>
            </g>
            <g transform="matrix(1,0,0,1,438.779,602.481)">
                <path d="M0,-21.503C-0.001,-21.167 -0.152,-20.838 -0.46,-20.65L-2.28,-19.534L-2.28,0L8.461,-6.442L8.461,-21.503L0,-21.503Z" style="fill:rgb(249,198,123);fill-rule:nonzero;"/>
            </g>
            <g transform="matrix(1,0,0,1,373.917,626.732)">
                <path d="M0,11.82L0,-5.417L-6.064,-1.7C-6.228,-1.6 -6.408,-1.552 -6.586,-1.552L-6.587,-1.552L-6.587,17.237L0.833,12.787C0.363,12.705 0,12.314 0,11.82" style="fill:rgb(249,198,123);fill-rule:nonzero;"/>
            </g>
            <g transform="matrix(1,0,0,1,389.353,594.48)">
                <path d="M0,15.026C0.103,14.922 0.232,14.848 0.372,14.797L46.531,-13.501L-22.023,-13.501L-22.023,28.527L0,15.026Z" style="fill:rgb(249,198,123);fill-rule:nonzero;"/>
            </g>
            <g transform="matrix(1,0,0,1,421.353,687.764)">
                <path d="M0,-11.939L0,7.031L13.615,0.311C13.339,0.133 13.146,-0.163 13.146,-0.516L13.146,-18.97L0,-11.939Z" style="fill:rgb(249,198,123);fill-rule:nonzero;"/>
            </g>
            <g transform="matrix(1,0,0,1,404.208,692.079)">
                <path d="M0,10.581L0,-7.085L-13.146,-0.054L-13.146,17.666L0.164,11.098C0.069,10.944 0,10.774 0,10.581" style="fill:rgb(249,198,123);fill-rule:nonzero;"/>
            </g>
            <g transform="matrix(1,0,0,1,446.273,702.449)">
                <path d="M0,-42.221L-78.943,-42.221L-78.943,0L0,-42.221Z" style="fill:rgb(249,198,123);fill-rule:nonzero;"/>
            </g>
            <g transform="matrix(1,0,0,1,389.119,699.612)">
                <path d="M0,11.092C-0.027,11.002 -0.057,10.911 -0.057,10.812L-0.057,-6.517L-13.202,0.513L-13.202,17.609L0,11.092Z" style="fill:rgb(249,198,123);fill-rule:nonzero;"/>
            </g>
            <g transform="matrix(1,0,0,1,436.499,681.585)">
                <path d="M0,-13.86L0,5.663C0,5.692 -0.014,5.715 -0.017,5.744L10.741,0.434L10.741,-19.604L0,-13.86Z" style="fill:rgb(249,198,123);fill-rule:nonzero;"/>
            </g>
            <g transform="matrix(1,0,0,1,419.353,683.976)">
                <path d="M0,11.212L0,-7.082L-13.146,-0.052L-13.146,18.294L0.162,11.726C0.068,11.573 0,11.404 0,11.212" style="fill:rgb(249,198,123);fill-rule:nonzero;"/>
            </g>
            <g transform="matrix(1,0,0,1,373.917,704.939)">
                <path d="M0,12.775L0,-3.745L-6.115,-0.474C-6.266,-0.394 -6.427,-0.356 -6.586,-0.356L-6.587,-0.356L-6.587,16.52L0.111,13.213C0.045,13.08 0,12.935 0,12.775" style="fill:rgb(249,198,123);fill-rule:nonzero;"/>
            </g>
            <g transform="matrix(0,1,1,0,433.98,571.329)">
                <path d="M-66.65,13.26L-65.84,13.26L-11.23,-66.65L-68.68,-66.65L-66.65,13.26Z" style="fill:none;fill-rule:nonzero;stroke:white;stroke-width:2.5px;"/>
            </g>
            <g transform="matrix(0,1,1,0,438.78,652.428)">
                <path d="M-71.45,8.46L-56.389,8.46L-8.46,-71.45L-71.45,-71.45L-71.45,8.46Z" style="fill:none;fill-rule:nonzero;stroke:white;stroke-width:2.5px;"/>
            </g>
            <g transform="matrix(0,1,1,0,437.9,730.798)">
                <path d="M-70.57,9.34L-48.78,9.34L-9.34,-70.57L-70.57,-70.57L-70.57,9.34Z" style="fill:none;fill-rule:nonzero;stroke:white;stroke-width:2.5px;"/>
            </g>
            <g transform="matrix(0,1,1,0,438.735,492.303)">
                <path d="M-71.405,8.505L-8.505,8.505L-10.525,-71.405L-61.135,-71.405L-71.405,8.505Z" style="fill:none;fill-rule:nonzero;stroke:white;stroke-width:2.5px;"/>
            </g>
            <g transform="matrix(1,0,0,1,324.43,488.999)">
                <path d="M0,-17.88L0,7.4L-6.38,6.44L-40.59,1.27L-40.59,-25.28L-6.38,-19.04L0,-17.88Z" style="fill:none;fill-rule:nonzero;stroke:white;stroke-width:2.5px;"/>
            </g>
            <g transform="matrix(1,0,0,1,283.84,736.929)">
                <path d="M0,-350.591L0,1.78L-22.22,7.2L-22.47,7.149L-22.47,-357.791L0,-350.591Z" style="fill:none;fill-rule:nonzero;stroke:white;stroke-width:2.5px;"/>
            </g>
            <g transform="matrix(1,0,0,1,248.86,474.568)">
                <path d="M0,-16.98L0,10.21L-7.4,9.09L-58.98,1.27L-58.98,-27.19L-7.4,-18.26L0,-16.98Z" style="fill:none;fill-rule:nonzero;stroke:white;stroke-width:2.5px;"/>
            </g>
            <g transform="matrix(1,0,0,1,189.88,586.869)">
                <path d="M0,-28.77L51.58,-27.28L58.98,-27.07L58.98,-0.63L51.58,-0.55L0,0" style="fill:none;fill-rule:nonzero;stroke:white;stroke-width:2.5px;"/>
            </g>
            <g transform="matrix(0,-1,-1,0,285.286,462.559)">
                <path d="M-95.406,95.406L95.406,95.406" style="fill:none;fill-rule:nonzero;stroke:white;stroke-width:2.5px;"/>
            </g>
            <g transform="matrix(-0.984588,-0.174887,-0.174887,0.984588,188.052,441.526)">
                <path d="M-1.279,-6.886L0.636,-6.886L-0.606,0.108L-2.522,0.113L-1.279,-6.886Z" style="fill:white;fill-rule:nonzero;"/>
            </g>
            <g transform="matrix(0.984593,0.174864,0.174864,-0.984593,188.387,432.701)">
                <path d="M0.281,-0.195L2.821,-0.195L2.22,3.188L-0.321,3.194L0.281,-0.195Z" style="fill:white;fill-rule:nonzero;"/>
            </g>
            <g transform="matrix(0.984593,0.174864,0.174864,-0.984593,239.98,441.858)">
                <path d="M0.269,-0.197L2.808,-0.197L2.232,3.045L-0.308,3.052L0.269,-0.197Z" style="fill:white;fill-rule:nonzero;"/>
            </g>
            <g transform="matrix(1,0,0,1,191.13,375.958)">
                <path d="M0,52.299L0,-6.304L49.08,8.597L49.08,61.148L51.58,61.599L51.58,7.671C51.58,7.12 51.22,6.634 50.693,6.474L-0.887,-9.186C-1.266,-9.3 -1.676,-9.23 -1.995,-8.993C-2.313,-8.758 -2.5,-8.386 -2.5,-7.99L-2.5,51.848L0,52.299Z" style="fill:white;fill-rule:nonzero;"/>
            </g>
            <g transform="matrix(1,0,0,1,240.21,448.25)">
                <path d="M0,4.489L0,6.574L-9.771,4.882L-9.771,6.051C-9.771,6.51 -10.144,6.884 -10.604,6.884C-11.064,6.884 -11.438,6.51 -11.438,6.051L-11.438,4.593L-25.324,2.19L-25.324,2.939C-25.324,3.399 -25.697,3.773 -26.157,3.773C-26.617,3.773 -26.99,3.399 -26.99,2.939L-26.99,1.901L-40.868,-0.502C-40.893,-0.064 -41.248,0.286 -41.692,0.286C-42.152,0.286 -42.525,-0.087 -42.525,-0.547L-42.525,-0.788L-49.08,-1.923L-49.08,-4.368L-51.58,-4.82L-51.58,-0.871C-51.58,-0.263 -51.143,0.257 -50.543,0.361L1.037,9.29C1.108,9.303 1.179,9.309 1.25,9.309C1.542,9.309 1.828,9.206 2.055,9.015C2.337,8.778 2.5,8.427 2.5,8.059L2.5,4.94L0,4.489Z" style="fill:white;fill-rule:nonzero;"/>
            </g>
            <g transform="matrix(-0.984593,-0.174864,-0.174864,0.984593,239.633,450.781)">
                <path d="M-1.885,-6.984L0.654,-6.984L-0.614,0.159L-3.154,0.166L-1.885,-6.984Z" style="fill:white;fill-rule:nonzero;"/>
            </g>
            <g transform="matrix(-0.984597,-0.174838,-0.174838,0.984597,198.864,443.119)">
                <path d="M-5.397,-6.565L0.672,-6.565L-0.575,0.459L-6.647,0.475L-5.397,-6.565Z" style="fill:rgb(249,198,123);fill-rule:nonzero;"/>
            </g>
            <g transform="matrix(0,-1,-1,0,209.223,427.435)">
                <path d="M-9.872,-3.997L-6.498,-3.997L-3.997,9.872L-7.411,9.872L-9.872,-3.997Z" style="fill:rgb(249,198,123);fill-rule:nonzero;"/>
            </g>
            <g transform="matrix(-0.984597,-0.174837,-0.174837,0.984597,191.687,441.866)">
                <path d="M-4.922,-6.586L0.666,-6.586L-0.577,0.418L-6.168,0.434L-4.922,-6.586Z" style="fill:rgb(249,198,123);fill-rule:nonzero;"/>
            </g>
            <g transform="matrix(0,1,1,0,237.588,443.214)">
                <path d="M-1.158,-7.15L6.069,-7.15L7.15,-1.157L-0.095,-1.157L-1.158,-7.15Z" style="fill:rgb(249,198,123);fill-rule:nonzero;"/>
            </g>
            <g transform="matrix(0.984132,0.177437,0.177437,-0.984132,187.105,423.508)">
                <path d="M4.803,-3.96L54.675,-3.96L45.35,47.758L-5.595,53.714L4.803,-3.96Z" style="fill:rgb(249,198,123);fill-rule:nonzero;"/>
            </g>
            <g transform="matrix(0.984616,0.174734,0.174734,-0.984616,230.375,439.498)">
                <path d="M0.214,-0.841L10.138,-0.841L9.562,2.406L-0.367,2.433L0.214,-0.841Z" style="fill:rgb(249,198,123);fill-rule:nonzero;"/>
            </g>
            <g transform="matrix(-0.98414,-0.177395,-0.177395,0.98414,214.923,436.327)">
                <path d="M-13.702,-2.053L0.407,-2.053L-0.19,1.262L-14.293,1.225L-13.702,-2.053Z" style="fill:rgb(249,198,123);fill-rule:nonzero;"/>
            </g>
            <g transform="matrix(1,0,0,1,199.351,450.151)">
                <path d="M0,-4.786L0,-2.449C0,-2.432 -0.008,-2.419 -0.009,-2.403L13.869,0L13.869,-2.284L0,-4.786Z" style="fill:rgb(249,198,123);fill-rule:nonzero;"/>
            </g>
            <g transform="matrix(1,0,0,1,206.992,446.174)">
                <path d="M0,-8.28L0,-1.241C0,-1.201 -0.017,-1.167 -0.023,-1.128L6.229,0L6.229,-7.175L0,-8.28Z" style="fill:rgb(249,198,123);fill-rule:nonzero;"/>
            </g>
            <g transform="matrix(-0.984092,-0.177662,-0.177662,0.984092,230.488,452.189)">
                <path d="M-9.665,-1.186L0.264,-1.186L-0.119,0.936L-10.035,0.865L-9.665,-1.186Z" style="fill:rgb(249,198,123);fill-rule:nonzero;"/>
            </g>
            <g transform="matrix(0,1,1,0,224.167,443.563)">
                <path d="M4.606,-9.281L6.877,-9.281L9.281,4.606L7.112,4.606L4.606,-9.281Z" style="fill:rgb(249,198,123);fill-rule:nonzero;"/>
            </g>
            <g transform="matrix(0,1,1,0,242.968,446.174)">
                <path d="M-2.758,-4.872L4.491,-4.872L4.872,-2.759L-2.383,-2.759L-2.758,-4.872Z" style="fill:rgb(249,198,123);fill-rule:nonzero;"/>
            </g>
            <g transform="matrix(-0.984622,-0.174696,-0.174696,0.984622,214.401,445.904)">
                <path d="M-5.648,-6.591L0.677,-6.591L-0.577,0.478L-6.905,0.497L-5.648,-6.591Z" style="fill:rgb(249,198,123);fill-rule:nonzero;"/>
            </g>
            <g transform="matrix(-0.984626,-0.174676,-0.174676,0.984626,222.289,447.348)">
                <path d="M-5.408,-6.634L0.677,-6.634L-0.581,0.458L-6.669,0.476L-5.408,-6.634Z" style="fill:rgb(249,198,123);fill-rule:nonzero;"/>
            </g>
            <g transform="matrix(0,-1,-1,0,196.707,428.972)">
                <path d="M-5.578,-0.978L-2.161,-0.978L-0.978,5.578L-4.413,5.578L-5.578,-0.978Z" style="fill:rgb(249,198,123);fill-rule:nonzero;"/>
            </g>
            <g transform="matrix(-0.984102,-0.177604,-0.177604,0.984102,191.074,445.687)">
                <path d="M-6.395,-1.786L0.266,-1.786L-0.168,0.62L-6.821,0.572L-6.395,-1.786Z" style="fill:rgb(249,198,123);fill-rule:nonzero;"/>
            </g>
            <g transform="matrix(0.00851167,-0.999964,-0.999964,-0.00851167,304.888,444.947)">
                <path d="M-9.482,-3.858L-6.31,-3.858L-3.891,9.564L-7.099,9.563L-9.482,-3.858Z" style="fill:rgb(249,198,123);fill-rule:nonzero;"/>
            </g>
            <g transform="matrix(-0.983087,-0.183139,-0.183139,0.983087,294.73,459.685)">
                <path d="M-5.429,-6.12L0.61,-6.12L-0.562,0.484L-6.603,0.502L-5.429,-6.12Z" style="fill:rgb(249,198,123);fill-rule:nonzero;"/>
            </g>
            <g transform="matrix(0.982577,0.185856,0.185856,-0.982577,281.551,441.927)">
                <path d="M4.092,-2.589L36.364,-2.589L28.293,40.078L-4.654,43.648L4.092,-2.589Z" style="fill:rgb(249,198,123);fill-rule:nonzero;"/>
            </g>
            <g transform="matrix(0.00865381,-0.999963,-0.999963,-0.00865381,294.93,453.614)">
                <path d="M-6.364,1.246L0.338,1.246L1.257,6.42L-5.43,6.419L-6.364,1.246Z" style="fill:rgb(249,198,123);fill-rule:nonzero;"/>
            </g>
            <g transform="matrix(1,0,0,1,293.595,460.14)">
                <path d="M0,3.899L0.021,1.419L-8.504,-0.195L-8.504,2.536L0.038,4.094C0.021,4.03 0,3.968 0,3.899" style="fill:rgb(249,198,123);fill-rule:nonzero;"/>
            </g>
            <g transform="matrix(1,0,0,1,308.651,461.7)">
                <path d="M0,-5.647L-5.899,-6.747L-5.956,-0.187C-5.956,-0.129 -5.978,-0.078 -5.99,-0.023L-0.058,1.1L0,-5.647Z" style="fill:rgb(249,198,123);fill-rule:nonzero;"/>
            </g>
            <g transform="matrix(1,0,0,1,308.58,464.42)">
                <path d="M0,-0.028L-13.4,-2.565L-13.418,-0.367C-13.42,-0.203 -13.483,-0.06 -13.571,0.066L-0.022,2.537L0,-0.028Z" style="fill:rgb(249,198,123);fill-rule:nonzero;"/>
            </g>
            <g transform="matrix(-0.983068,-0.183239,-0.183239,0.983068,284.525,458.121)">
                <path d="M-1.271,-6.452L0.628,-6.452L-0.597,0.122L-2.439,0.128L-1.271,-6.452Z" style="fill:rgb(249,198,123);fill-rule:nonzero;"/>
            </g>
            <g transform="matrix(-0.983095,-0.183094,-0.183094,0.983095,309.696,462.498)">
                <path d="M-5.655,-6.144L0.615,-6.144L-0.564,0.503L-6.837,0.522L-5.655,-6.144Z" style="fill:rgb(249,198,123);fill-rule:nonzero;"/>
            </g>
            <g transform="matrix(-0.98255,-0.186,-0.186,0.98255,310.064,466.568)">
                <path d="M-6.503,-1.862L0.271,-1.862L-0.183,0.651L-6.971,0.606L-6.503,-1.862Z" style="fill:rgb(249,198,123);fill-rule:nonzero;"/>
            </g>
            <g transform="matrix(-0.00852511,0.999964,0.999964,0.00852511,315.738,450.542)">
                <path d="M1.09,-5.473L4.257,-5.473L5.426,1.108L2.273,1.081L1.09,-5.473Z" style="fill:rgb(249,198,123);fill-rule:nonzero;"/>
            </g>
            <g transform="matrix(0.00840306,-0.999965,-0.999965,-0.00840306,291.869,444.978)">
                <path d="M-6.679,-1.888L-3.466,-1.888L-1.904,6.762L-5.147,6.735L-6.679,-1.888Z" style="fill:rgb(249,198,123);fill-rule:nonzero;"/>
            </g>
            <g transform="matrix(-0.999151,-0.0411953,-0.0411953,0.999151,199.033,552.273)">
                <path d="M-5.939,-6.974L0.081,-6.974L-0.145,0.145L-6.165,0.122L-5.939,-6.974Z" style="fill:rgb(249,198,123);fill-rule:nonzero;"/>
            </g>
            <g transform="matrix(-0.999147,-0.0413005,-0.0413005,0.999147,191.815,552.014)">
                <path d="M-5.463,-7.014L0.082,-7.014L-0.146,0.135L-5.69,0.113L-5.463,-7.014Z" style="fill:rgb(249,198,123);fill-rule:nonzero;"/>
            </g>
            <g transform="matrix(-0.00963091,0.999954,0.999954,0.00963091,207.898,548.861)">
                <path d="M5.327,-8.691L8.338,-8.691L8.607,5.277L5.713,5.277L5.327,-8.691Z" style="fill:rgb(249,198,123);fill-rule:nonzero;"/>
            </g>
            <g transform="matrix(1,0,0,1,228.907,544.165)">
                <path d="M0,-2.51L-13.979,-3.189L-14.01,0.102L-6.979,0.392C-6.952,0.39 -6.929,0.377 -6.902,0.377C-6.864,0.378 -6.833,0.395 -6.796,0.4L-0.03,0.679L0,-2.51Z" style="fill:rgb(249,198,123);fill-rule:nonzero;"/>
            </g>
            <g transform="matrix(0.00968771,-0.999953,-0.999953,-0.00968771,208.312,535.262)">
                <path d="M-8.888,-4.993L-5.585,-4.993L-5.042,8.974L-8.447,8.973L-8.888,-4.993Z" style="fill:rgb(249,198,123);fill-rule:nonzero;"/>
            </g>
            <g transform="matrix(0.998822,0.0485166,0.0485166,-0.998822,189.741,536.915)">
                <path d="M1.447,-1.156L50.585,-1.156L47.878,54.568L-1.505,59.619L1.447,-1.156Z" style="fill:rgb(249,198,123);fill-rule:nonzero;"/>
            </g>
            <g transform="matrix(-0.00956962,0.999954,0.999954,0.00956962,237.162,547.258)">
                <path d="M-0.602,-6.63L6.399,-6.63L6.567,-0.596L-0.411,-0.596L-0.602,-6.63Z" style="fill:rgb(249,198,123);fill-rule:nonzero;"/>
            </g>
            <g transform="matrix(1,0,0,1,230.554,542.135)">
                <path d="M0,2.778L6.853,3.061C6.859,3.061 6.864,3.057 6.871,3.057C6.88,3.057 6.887,3.062 6.896,3.063L9.656,3.176L9.656,0.069L0.03,-0.398L0,2.778Z" style="fill:rgb(249,198,123);fill-rule:nonzero;"/>
            </g>
            <g transform="matrix(-0.00946737,0.999955,0.999955,0.00946737,242.728,549.52)">
                <path d="M-2.566,-4.505L4.405,-4.505L4.462,-2.476L-2.504,-2.542L-2.566,-4.505Z" style="fill:rgb(249,198,123);fill-rule:nonzero;"/>
            </g>
            <g transform="matrix(-0.00944418,0.999955,0.999955,0.00944418,213.727,546.216)">
                <path d="M-0.533,-6.8L6.561,-6.8L6.736,-0.528L-0.333,-0.528L-0.533,-6.8Z" style="fill:rgb(249,198,123);fill-rule:nonzero;"/>
            </g>
            <g transform="matrix(-0.00937784,0.999956,0.999956,0.00937784,223.481,549.369)">
                <path d="M5.4,-8.633L8.28,-8.633L8.552,5.351L5.791,5.351L5.4,-8.633Z" style="fill:rgb(249,198,123);fill-rule:nonzero;"/>
            </g>
            <g transform="matrix(-0.999301,-0.0373944,-0.0373944,0.999301,230.389,557.754)">
                <path d="M-9.735,-2.482L0.026,-2.482L-0.049,0.264L-9.834,0.181L-9.735,-2.482Z" style="fill:rgb(249,198,123);fill-rule:nonzero;"/>
            </g>
            <g transform="matrix(-0.999304,-0.0373027,-0.0373027,0.999304,191.08,556.711)">
                <path d="M-6.295,-2.906L0.059,-2.906L-0.056,0.171L-6.379,0.119L-6.295,-2.906Z" style="fill:rgb(249,198,123);fill-rule:nonzero;"/>
            </g>
            <g transform="matrix(-0.999148,-0.0412726,-0.0412726,0.999148,214.676,552.85)">
                <path d="M-6.194,-6.907L0.081,-6.907L-0.144,0.153L-6.418,0.128L-6.194,-6.907Z" style="fill:rgb(249,198,123);fill-rule:nonzero;"/>
            </g>
            <g transform="matrix(-0.999149,-0.0412379,-0.0412379,0.999149,222.624,553.154)">
                <path d="M-5.958,-6.882L0.08,-6.882L-0.143,0.146L-6.18,0.123L-5.958,-6.882Z" style="fill:rgb(249,198,123);fill-rule:nonzero;"/>
            </g>
            <g transform="matrix(0.00965432,-0.999953,-0.999953,-0.00965432,196.268,538.496)">
                <path d="M-5.043,-1.359L-1.625,-1.359L-1.373,5.125L-4.84,5.092L-5.043,-1.359Z" style="fill:rgb(249,198,123);fill-rule:nonzero;"/>
            </g>
            <g transform="matrix(-0.999233,-0.0391623,-0.0391623,0.999233,302.732,556.84)">
                <path d="M-6.592,-7.352L0.149,-7.352L-0.145,0.164L-6.885,0.129L-6.592,-7.352Z" style="fill:rgb(249,198,123);fill-rule:nonzero;"/>
            </g>
            <g transform="matrix(0,1,1,0,304.021,538.247)">
                <path d="M5.586,-9.716L9.116,-9.716L9.715,5.586L6.403,5.586L5.586,-9.716Z" style="fill:rgb(249,198,123);fill-rule:nonzero;"/>
            </g>
            <g transform="matrix(-0.999234,-0.0391358,-0.0391358,0.999234,286.48,556.308)">
                <path d="M-5.752,-7.457L0.15,-7.457L-0.147,0.143L-6.048,0.113L-5.752,-7.457Z" style="fill:rgb(249,198,123);fill-rule:nonzero;"/>
            </g>
            <g transform="matrix(-0.999231,-0.0392087,-0.0392087,0.999231,294.166,556.547)">
                <path d="M-6.634,-7.395L0.15,-7.395L-0.146,0.165L-6.929,0.13L-6.634,-7.395Z" style="fill:rgb(249,198,123);fill-rule:nonzero;"/>
            </g>
            <g transform="matrix(0.998574,0.053377,0.053377,-0.998574,283.828,540.671)">
                <path d="M1.307,-0.812L33.063,-0.812L30.568,45.854L-1.353,48.947L1.307,-0.812Z" style="fill:rgb(249,198,123);fill-rule:nonzero;"/>
            </g>
            <g transform="matrix(-0.998575,-0.0533632,-0.0533632,0.998575,311.318,547.81)">
                <path d="M-5.326,-3.063L0.09,-3.063L-0.086,0.22L-5.498,0.142L-5.326,-3.063Z" style="fill:rgb(249,198,123);fill-rule:nonzero;"/>
            </g>
            <g transform="matrix(-0.999422,-0.034004,-0.034004,0.999422,311.359,561.249)">
                <path d="M-5.371,-2.162L0.04,-2.162L-0.037,0.091L-5.448,0.091L-5.371,-2.162Z" style="fill:rgb(249,198,123);fill-rule:nonzero;"/>
            </g>
            <g transform="matrix(0,1,1,0,317.928,550.949)">
                <path d="M-1.127,-6.536L6.352,-6.536L6.536,-1.127L-0.915,-1.127L-1.127,-6.536Z" style="fill:rgb(249,198,123);fill-rule:nonzero;"/>
            </g>
            <g transform="matrix(0,-1,-1,0,290.782,541.603)">
                <path d="M-5.691,-1.738L-2.134,-1.738L-1.737,5.691L-5.4,5.691L-5.691,-1.738Z" style="fill:rgb(249,198,123);fill-rule:nonzero;"/>
            </g>
            <g transform="matrix(-0.999421,-0.034036,-0.034036,0.999421,285.059,560.322)">
                <path d="M-7.393,-2.131L0.041,-2.131L-0.036,0.127L-7.47,0.126L-7.393,-2.131Z" style="fill:rgb(249,198,123);fill-rule:nonzero;"/>
            </g>
            <g transform="matrix(0,1,1,0,303.345,552.243)">
                <path d="M6.262,-9.039L8.52,-9.039L9.039,6.262L6.783,6.262L6.262,-9.039Z" style="fill:rgb(249,198,123);fill-rule:nonzero;"/>
            </g>
        </g>
    </g>
</svg>
